<?xml version="1.0" standalone="no"?>
<!DOCTYPE svg PUBLIC "-//W3C//DTD SVG 20010904//EN"
 "http://www.w3.org/TR/2001/REC-SVG-20010904/DTD/svg10.dtd">
<svg version="1.0" xmlns="http://www.w3.org/2000/svg"
 width="700.000000pt" height="700.000000pt" viewBox="0 0 700.000000 700.000000"
 preserveAspectRatio="xMidYMid meet">
<metadata>
Created by potrace 1.11, written by Peter Selinger 2001-2013
</metadata>
<g transform="translate(0.000000,700.000000) scale(0.100000,-0.100000)"
fill="#000000" stroke="none">
<path d="M5717 6993 c-39 -10 -97 -59 -243 -206 -83 -84 -276 -275 -428 -425
l-278 -274 -2 -497 -1 -498 -132 -132 c-73 -73 -133 -137 -133 -142 0 -5 -5
-9 -10 -9 -10 0 -504 -490 -593 -588 -21 -23 -42 -42 -47 -42 -5 0 -12 -9 -15
-20 -3 -11 -10 -20 -14 -20 -5 0 -29 -20 -53 -45 -25 -25 -43 -45 -40 -45 2 0
-8 -10 -24 -22 -16 -12 -32 -27 -36 -33 -10 -17 -58 -67 -58 -61 0 3 -10 -5
-23 -17 -13 -12 -23 -24 -22 -27 1 -3 -16 -22 -37 -42 -21 -21 -38 -36 -38
-34 0 3 -15 -10 -33 -27 -18 -18 -31 -35 -30 -39 2 -4 -6 -9 -16 -13 -11 -3
-23 -15 -26 -26 -4 -10 -10 -17 -14 -14 -5 2 -13 -7 -19 -20 -7 -14 -16 -25
-22 -25 -5 0 -10 -7 -10 -15 0 -8 -4 -15 -10 -15 -5 0 -9 -3 -8 -7 1 -5 -4
-21 -11 -38 -33 -76 -11 -163 59 -239 38 -42 79 -62 142 -71 40 -6 50 -4 123
32 17 8 159 144 317 301 158 158 403 403 545 544 142 141 337 338 433 437
l175 180 499 0 499 0 135 138 c217 223 540 548 642 647 99 95 123 131 135 203
11 70 -37 152 -119 202 -27 17 -59 20 -266 25 -536 13 -613 15 -616 18 -1 2
-5 111 -8 243 -11 502 -15 589 -31 631 -33 87 -150 150 -238 127z"/>
<path d="M3156 6533 c-3 -3 -47 -7 -98 -8 -51 -2 -93 -5 -93 -6 0 -1 -20 -3
-45 -4 -25 -2 -45 -4 -45 -5 0 -2 -38 -7 -100 -14 -16 -2 -30 -4 -30 -6 0 -1
-12 -3 -27 -4 -14 0 -30 -4 -34 -8 -4 -5 -21 -8 -39 -8 -17 0 -76 -12 -130
-26 -55 -15 -110 -28 -121 -29 -12 -2 -30 -7 -40 -13 -11 -5 -25 -7 -31 -5 -7
3 -13 -1 -13 -7 0 -7 -7 -10 -15 -6 -8 3 -15 1 -15 -4 0 -6 -13 -10 -29 -10
-17 0 -33 -4 -36 -10 -3 -5 -25 -14 -48 -20 -23 -6 -55 -17 -72 -25 -16 -7
-54 -23 -83 -34 -29 -12 -82 -35 -117 -51 -35 -17 -69 -30 -75 -30 -5 0 -10
-4 -10 -10 0 -5 -7 -10 -16 -10 -9 0 -28 -8 -42 -18 -15 -10 -63 -38 -107 -62
-44 -24 -86 -50 -93 -57 -7 -7 -19 -13 -27 -13 -7 0 -15 -4 -17 -8 -1 -5 -51
-41 -110 -81 -60 -40 -108 -77 -108 -82 0 -5 -7 -9 -15 -9 -8 0 -20 -9 -27
-20 -7 -11 -18 -20 -25 -20 -7 0 -18 -9 -25 -20 -7 -11 -18 -20 -25 -20 -6 0
-21 -13 -33 -30 -12 -16 -26 -30 -31 -30 -11 0 -279 -267 -279 -279 0 -4 -13
-18 -30 -31 -16 -13 -30 -27 -30 -33 0 -5 -10 -18 -22 -29 -13 -11 -23 -23
-23 -26 0 -4 -15 -23 -33 -42 -17 -19 -32 -40 -32 -47 0 -7 -4 -13 -9 -13 -9
0 -66 -82 -62 -89 2 -2 -2 -7 -8 -11 -7 -3 -27 -31 -46 -61 -19 -30 -39 -59
-45 -66 -5 -7 -10 -17 -10 -23 0 -5 -4 -10 -9 -10 -5 0 -12 -12 -16 -27 -3
-15 -10 -30 -15 -33 -30 -19 -240 -482 -240 -530 0 -11 -4 -20 -9 -20 -8 0
-20 -31 -27 -65 -1 -5 -3 -13 -4 -17 -1 -5 -4 -12 -5 -18 -1 -5 -4 -13 -5 -17
-1 -5 -2 -11 -1 -15 0 -5 -3 -8 -7 -8 -4 0 -8 -8 -9 -17 -1 -19 -1 -21 -27
-118 -23 -89 -59 -266 -61 -300 -1 -16 -5 -41 -8 -55 -4 -14 -9 -54 -12 -90
-2 -36 -8 -103 -12 -150 -8 -100 -8 -293 0 -405 9 -129 17 -218 23 -250 3 -16
7 -48 10 -70 3 -22 7 -47 10 -55 4 -8 8 -31 11 -50 2 -19 15 -78 28 -130 13
-52 26 -109 30 -127 18 -105 178 -499 255 -628 9 -16 15 -33 13 -37 -2 -5 1
-8 6 -8 6 0 11 -6 11 -14 0 -7 9 -25 20 -39 11 -14 20 -30 20 -36 0 -6 26 -50
58 -98 32 -48 68 -105 81 -125 12 -21 27 -38 32 -38 5 0 9 -6 9 -13 0 -7 14
-27 30 -45 17 -18 30 -37 30 -42 0 -5 9 -14 20 -20 11 -6 18 -15 15 -20 -3 -5
6 -17 20 -26 14 -9 25 -22 25 -29 0 -8 13 -23 30 -35 16 -12 29 -24 27 -28 -2
-8 270 -282 280 -282 3 0 18 -12 33 -27 15 -16 42 -39 60 -53 18 -14 40 -33
49 -42 8 -10 21 -18 27 -18 7 0 14 -7 18 -15 3 -8 10 -15 16 -15 5 0 23 -12
39 -26 16 -14 67 -50 113 -80 46 -29 88 -58 95 -64 7 -5 17 -10 23 -10 5 0 10
-4 10 -9 0 -5 12 -12 27 -16 15 -3 30 -10 33 -15 3 -4 32 -21 65 -37 33 -16
96 -48 140 -70 92 -47 232 -105 395 -163 115 -40 493 -128 585 -135 27 -2 73
-7 100 -10 113 -15 682 -10 715 6 9 4 40 8 70 10 30 1 60 5 65 8 10 5 38 10
83 12 12 1 25 6 28 10 3 5 9 7 13 4 11 -6 298 67 401 103 8 3 18 4 23 4 4 -1
7 2 7 7 0 5 17 12 38 16 20 3 47 13 59 21 13 8 23 12 23 10 0 -9 330 142 340
156 3 4 17 12 30 17 14 6 54 29 90 51 36 22 73 43 83 46 9 4 17 10 17 15 0 5
7 9 15 9 8 0 15 5 15 10 0 6 7 10 15 10 8 0 15 5 15 10 0 6 6 10 14 10 7 0 29
13 47 30 19 16 37 30 42 30 4 0 15 8 25 18 10 9 56 46 102 82 138 106 419 395
551 565 30 39 57 71 61 73 5 2 8 8 8 13 0 11 42 72 53 77 4 2 7 10 7 18 0 8 5
14 11 14 5 0 8 4 5 9 -3 5 1 11 9 15 8 3 15 15 15 26 0 11 5 20 10 20 6 0 10
6 10 14 0 8 7 16 15 20 8 3 15 14 15 24 0 11 6 25 13 31 8 6 22 29 32 51 10
22 22 40 27 40 4 0 8 5 8 11 0 5 17 47 39 92 65 138 91 196 104 238 6 21 15
39 19 39 5 0 8 9 8 21 0 11 8 41 19 67 17 44 46 131 46 142 0 3 3 10 6 15 4 6
10 28 14 50 5 22 9 45 11 50 2 6 5 20 8 33 3 13 7 31 10 40 3 9 8 33 11 52 3
19 12 64 20 100 25 119 55 409 58 565 1 91 -18 350 -33 445 -5 30 -12 80 -15
110 -7 59 -67 316 -91 383 -8 23 -17 58 -20 77 -7 40 -30 90 -43 90 -5 0 -14
-6 -20 -14 -12 -15 -36 -22 -101 -30 -19 -3 -64 -11 -100 -19 -45 -10 -137
-15 -294 -16 -126 0 -231 -2 -233 -4 -5 -5 19 -71 28 -77 4 -3 9 -17 11 -30 2
-14 8 -32 13 -40 5 -8 10 -20 11 -26 1 -6 16 -56 32 -110 30 -96 35 -116 48
-179 35 -180 39 -212 50 -365 8 -115 9 -284 1 -370 -14 -158 -19 -205 -25
-215 -3 -5 -7 -19 -8 -30 -3 -37 -16 -100 -22 -110 -3 -5 -7 -25 -9 -45 -6
-61 -103 -340 -161 -460 -30 -63 -56 -118 -56 -122 -1 -4 -8 -16 -17 -27 -10
-10 -20 -29 -24 -42 -4 -13 -11 -26 -14 -29 -11 -9 -46 -65 -44 -71 1 -4 -7
-15 -17 -24 -11 -10 -20 -24 -20 -31 0 -7 -6 -17 -14 -21 -8 -4 -15 -12 -16
-18 -4 -16 -63 -95 -72 -95 -4 0 -8 -5 -8 -12 0 -11 -11 -25 -62 -78 -16 -15
-28 -31 -28 -34 0 -10 -228 -236 -238 -236 -4 0 -18 -13 -30 -30 -13 -16 -29
-30 -36 -30 -8 0 -16 -7 -20 -15 -3 -8 -12 -15 -21 -15 -8 0 -15 -4 -15 -8 0
-5 -37 -35 -82 -68 -46 -32 -84 -62 -86 -66 -2 -5 -12 -8 -22 -8 -9 0 -23 -7
-30 -15 -7 -8 -19 -15 -26 -15 -8 0 -14 -4 -14 -9 0 -5 -12 -14 -27 -20 -16
-6 -35 -15 -43 -20 -8 -5 -28 -16 -45 -24 -16 -7 -39 -18 -50 -25 -11 -6 -51
-25 -90 -42 -38 -17 -78 -35 -87 -41 -10 -5 -26 -9 -36 -9 -10 0 -22 -4 -28
-9 -5 -5 -34 -17 -64 -26 -77 -23 -192 -56 -210 -60 -8 -2 -37 -9 -63 -15 -26
-7 -51 -10 -54 -6 -3 3 -12 1 -18 -4 -7 -6 -33 -12 -58 -14 -25 -2 -49 -6 -53
-8 -5 -3 -36 -6 -69 -8 -33 -1 -80 -4 -105 -6 -142 -11 -320 -16 -320 -8 0 6
-15 10 -32 10 -108 3 -168 8 -168 15 0 4 -13 5 -29 3 -16 -3 -32 0 -36 6 -3 6
-10 8 -13 6 -4 -2 -30 0 -57 6 -28 5 -59 11 -70 13 -11 1 -40 9 -65 16 -25 7
-49 13 -55 14 -5 0 -23 7 -38 13 -16 7 -32 10 -37 7 -5 -3 -11 -1 -14 4 -4 5
-24 12 -46 16 -22 4 -40 11 -40 16 0 5 -3 8 -7 7 -5 0 -17 2 -28 6 -11 4 -33
13 -50 19 -16 6 -63 25 -103 43 -40 18 -75 33 -79 33 -3 -1 -9 3 -12 8 -3 4
-22 16 -41 26 -71 35 -145 79 -148 88 -2 5 -12 9 -23 9 -10 0 -19 5 -19 10 0
6 -7 10 -15 10 -8 0 -15 5 -15 10 0 6 -7 10 -15 10 -8 0 -15 5 -15 10 0 6 -6
10 -14 10 -8 0 -16 7 -20 15 -3 8 -12 15 -20 15 -7 0 -16 7 -20 15 -3 8 -12
15 -20 15 -8 0 -16 3 -18 8 -6 13 -126 112 -137 112 -6 0 -11 4 -11 8 0 11
-171 181 -194 194 -9 5 -16 13 -16 19 0 11 -108 142 -122 147 -4 2 -6 8 -3 12
3 5 -4 15 -15 23 -11 7 -17 17 -14 20 4 4 -1 9 -10 13 -9 3 -16 12 -16 20 0 8
-4 14 -10 14 -5 0 -10 7 -10 15 0 8 -4 15 -10 15 -5 0 -10 7 -10 15 0 8 -4 15
-10 15 -5 0 -10 9 -10 20 0 11 -4 20 -9 20 -9 0 -46 63 -109 190 -20 41 -41
78 -47 82 -5 4 -6 8 -2 8 5 0 2 12 -6 28 -23 43 -50 106 -53 121 -1 7 -11 36
-22 65 -29 73 -50 146 -58 194 -4 23 -11 42 -16 42 -6 0 -8 6 -5 14 3 8 2 29
-3 48 -31 115 -64 421 -62 583 0 62 21 286 28 296 2 4 7 29 10 56 3 26 7 65
10 86 2 21 22 102 45 180 23 78 42 149 44 158 2 9 8 25 13 35 6 11 32 71 58
134 42 100 102 221 135 270 5 8 12 23 15 33 4 9 9 17 13 17 4 0 15 18 25 40
10 22 22 40 27 40 5 0 9 6 9 14 0 8 7 16 15 20 8 3 15 12 15 21 0 8 5 15 10
15 6 0 10 7 10 15 0 8 5 15 10 15 6 0 10 5 10 10 0 6 8 19 18 29 42 46 107
124 105 127 -3 5 231 234 239 234 4 0 17 13 29 30 12 16 26 27 30 24 4 -2 14
4 21 14 7 10 30 28 51 41 20 12 37 27 37 32 0 5 7 9 15 9 8 0 15 5 15 10 0 6
5 10 10 10 6 0 23 11 38 25 15 14 32 25 39 25 7 0 13 5 13 10 0 6 5 10 11 10
6 0 31 14 56 30 24 17 51 30 59 30 8 0 17 6 20 14 3 8 18 18 34 21 16 3 34 13
40 21 7 7 16 11 21 8 5 -3 9 0 9 5 0 6 5 11 10 11 6 0 44 15 84 34 218 102
569 190 806 202 36 2 124 6 197 10 72 4 140 3 150 -1 10 -4 57 -8 105 -10 48
-2 91 -6 96 -9 5 -3 24 -8 43 -11 29 -5 154 -27 214 -38 11 -2 27 -6 35 -9 8
-3 42 -13 75 -23 33 -9 68 -20 77 -26 10 -5 24 -9 33 -9 8 0 29 -6 47 -14 72
-31 104 -44 123 -50 20 -6 20 -1 20 252 0 141 4 266 9 277 5 11 10 25 11 30 1
6 3 12 4 15 3 5 6 22 17 87 3 24 17 54 30 68 l24 26 -32 12 c-18 6 -36 10 -40
9 -5 -1 -8 3 -8 9 0 5 -4 7 -10 4 -5 -3 -16 -3 -22 2 -7 4 -17 8 -23 9 -5 1
-50 14 -99 28 -92 27 -117 33 -176 42 -19 3 -46 10 -60 14 -23 8 -55 13 -145
25 -16 2 -30 4 -30 5 0 1 -18 4 -40 6 -22 2 -58 6 -80 9 -101 13 -441 26 -449
18z"/>
<path d="M3177 5223 c-3 -2 -42 -6 -89 -8 -83 -4 -249 -33 -337 -59 -25 -7
-48 -14 -51 -14 -3 0 -18 -6 -34 -12 -16 -6 -36 -12 -45 -14 -22 -4 -45 -14
-126 -51 -38 -18 -81 -36 -95 -40 -14 -4 -34 -15 -45 -25 -11 -10 -33 -22 -48
-26 -16 -3 -31 -13 -34 -20 -3 -8 -14 -14 -24 -14 -10 0 -19 -4 -19 -10 0 -5
-5 -10 -10 -10 -6 0 -16 -5 -23 -10 -44 -37 -145 -108 -149 -104 -3 2 -11 -7
-18 -21 -7 -14 -18 -25 -24 -25 -16 0 -237 -225 -229 -233 3 -4 1 -7 -5 -7 -7
0 -39 -37 -72 -82 -33 -46 -65 -88 -70 -95 -5 -7 -17 -28 -27 -47 -9 -20 -20
-36 -24 -36 -6 0 -28 -50 -28 -65 0 -3 -9 -15 -20 -26 -11 -12 -22 -32 -25
-45 -4 -13 -19 -52 -35 -86 -27 -58 -64 -152 -67 -170 -1 -5 -2 -9 -4 -10 -1
-2 -3 -10 -5 -18 -2 -8 -7 -26 -10 -40 -4 -14 -7 -31 -7 -37 -1 -7 -4 -13 -7
-13 -3 0 -7 -12 -7 -27 -1 -16 -11 -71 -22 -123 -27 -130 -42 -364 -29 -470 4
-30 8 -75 11 -100 16 -174 82 -406 168 -585 15 -33 28 -65 28 -72 0 -7 4 -13
8 -13 5 0 16 -19 27 -42 10 -24 21 -45 25 -48 8 -7 90 -138 90 -145 0 -3 8
-13 18 -24 9 -10 33 -37 52 -61 46 -57 252 -270 261 -270 4 0 20 -13 37 -28
16 -15 65 -52 108 -82 44 -30 81 -58 82 -62 2 -4 12 -8 23 -8 10 0 19 -4 19
-9 0 -5 8 -11 18 -15 9 -3 40 -18 67 -33 61 -35 157 -78 168 -75 4 1 7 -3 7
-9 0 -5 5 -7 10 -4 6 3 10 1 10 -5 0 -6 6 -10 13 -8 6 1 21 -3 32 -9 30 -16
293 -85 345 -90 25 -3 79 -10 120 -17 79 -14 435 -11 435 4 0 2 50 8 103 11
12 1 22 6 22 11 0 5 4 6 10 3 20 -12 290 63 362 101 15 8 30 14 33 13 5 -1 95
43 256 126 10 5 19 13 19 17 0 5 7 8 15 8 8 0 15 5 15 10 0 6 6 10 13 10 7 0
23 9 35 20 12 11 25 20 31 20 5 0 11 7 15 15 3 8 12 15 21 15 8 0 15 5 15 10
0 6 7 13 16 17 19 7 38 24 177 160 59 59 107 110 107 114 0 5 11 16 25 25 14
9 22 20 19 25 -3 5 2 12 10 15 9 3 16 13 16 20 0 8 7 17 15 20 8 4 15 12 15
20 0 8 4 14 9 14 5 0 14 13 21 30 7 17 16 30 21 30 5 0 9 7 9 15 0 8 5 15 10
15 6 0 10 6 10 14 0 7 6 19 14 25 8 7 18 26 21 42 4 16 10 29 14 29 9 0 71
130 71 148 0 6 5 12 12 12 6 0 8 3 5 7 -4 3 -2 12 4 20 6 7 8 13 4 13 -4 0 -3
6 3 13 11 13 68 188 75 228 2 13 6 31 9 39 3 8 12 49 19 90 7 41 14 82 16 90
12 58 24 377 14 395 -3 5 -6 34 -7 65 -1 45 -19 152 -49 294 -3 10 -24 77 -47
147 -45 136 -60 153 -91 106 -20 -30 -70 -80 -113 -114 -19 -14 -34 -30 -34
-37 -1 -6 -12 -20 -27 -31 -14 -11 -37 -33 -52 -50 -28 -32 -57 -61 -115 -114
-20 -19 -36 -37 -36 -41 0 -4 -22 -25 -50 -46 -27 -21 -52 -46 -55 -55 -3 -9
-20 -27 -39 -39 l-32 -23 0 -171 c0 -166 -9 -238 -39 -336 -8 -25 -16 -55 -18
-67 -2 -12 -6 -26 -10 -29 -4 -4 -7 -16 -7 -26 0 -10 -4 -18 -10 -18 -5 0 -10
-7 -10 -15 0 -18 -42 -109 -52 -113 -5 -2 -8 -10 -8 -17 0 -8 -6 -20 -13 -27
-7 -7 -30 -40 -52 -73 -49 -76 -211 -238 -290 -290 -33 -22 -62 -43 -65 -46
-3 -3 -15 -9 -27 -13 -13 -4 -23 -11 -23 -16 0 -4 -20 -14 -45 -21 -25 -7 -45
-16 -45 -20 0 -9 -210 -75 -280 -88 -30 -6 -102 -13 -160 -17 -58 -3 -107 -7
-110 -7 -5 -1 -19 1 -160 24 -133 22 -329 103 -466 194 -101 68 -271 235 -298
295 -5 11 -13 20 -18 20 -5 0 -13 10 -18 23 -6 12 -19 36 -30 52 -11 17 -23
37 -26 45 -4 8 -15 33 -25 55 -36 80 -59 147 -54 156 4 5 2 9 -4 9 -10 0 -17
26 -26 90 -2 19 -7 46 -10 60 -23 103 -25 267 -5 364 5 28 12 65 14 81 5 39
17 87 25 100 4 6 8 22 10 38 7 75 158 329 253 427 65 68 161 155 168 154 3 -1
10 6 17 15 7 9 13 12 13 7 0 -6 6 -3 13 6 6 9 32 27 57 41 25 13 60 33 79 45
19 11 38 19 43 16 4 -3 8 0 8 5 0 6 9 11 20 11 11 0 20 5 20 10 0 6 9 10 20
10 12 0 34 7 50 15 17 9 30 13 30 11 0 -3 12 -1 28 5 15 6 36 13 47 15 11 2
34 7 50 10 76 17 215 28 265 23 30 -4 80 -7 110 -8 55 -1 55 -1 109 59 29 33
59 60 67 60 8 0 14 5 14 10 0 6 98 109 218 230 119 122 218 225 220 229 2 5
-20 17 -47 26 -28 9 -51 21 -51 25 0 5 -6 7 -14 4 -8 -3 -17 0 -21 5 -3 6 -11
9 -16 6 -5 -4 -9 -2 -9 3 0 5 -6 9 -12 9 -7 0 -58 12 -113 26 -104 27 -202 45
-295 54 -71 8 -278 12 -283 6z"/>
</g>
</svg>
